<svg xmlns="http://www.w3.org/2000/svg" width="400" height="400" viewBox="0 0 400 400">
  <!-- Background -->
  <rect width="400" height="400" fill="#f8f9fa"/>
  
  <!-- Title -->
  <text x="200" y="30" text-anchor="middle" font-size="18" font-weight="bold" fill="#333">Transaction Types</text>
  <!-- Unknown: 11 (44.0%) -->
  <path d="M 200 200 L 200 66.66666666666666 A 133.33333333333334 133.33333333333334 0 0 1 249.0832736912904 323.97019811843353 Z" 
        fill="#10b981" opacity="0.8" stroke="#fff" stroke-width="2"/>
  <text x="291.68014340134425" y="182.51107730533238" text-anchor="middle" font-size="12" fill="#fff" font-weight="bold">44%</text>
  <!-- SOL Transfer: 10 (40.0%) -->
  <path d="M 200 200 L 249.0832736912904 323.97019811843353 A 133.33333333333334 133.33333333333334 0 0 1 87.42294326639797 128.55642733613382 Z" 
        fill="#3b82f6" opacity="0.8" stroke="#fff" stroke-width="2"/>
  <text x="128.08543067425967" y="259.49290570987773" text-anchor="middle" font-size="12" fill="#fff" font-weight="bold">40%</text>
  <!-- Token Account Operation: 3 (12.0%) -->
  <path d="M 200 200 L 87.42294326639797 128.55642733613382 A 133.33333333333334 133.33333333333334 0 0 1 166.8413483780193 70.85557851618253 Z" 
        fill="#f59e0b" opacity="0.8" stroke="#fff" stroke-width="2"/>
  <text x="145.14004311936918" y="124.49174719167158" text-anchor="middle" font-size="12" fill="#fff" font-weight="bold">12%</text>
  <!-- Sent SOL: 1 (4.0%) -->
  <path d="M 200 200 L 166.8413483780193 70.85557851618253 A 133.33333333333334 133.33333333333334 0 0 1 199.99999999999997 66.66666666666666 Z" 
        fill="#ef4444" opacity="0.8" stroke="#fff" stroke-width="2"/>
  <rect x="20" y="80" width="15" height="15" fill="#10b981" opacity="0.8"/>
  <text x="40" y="92" font-size="11" fill="#666">Unknown (11, 44.0%)</text>
  <rect x="20" y="100" width="15" height="15" fill="#3b82f6" opacity="0.8"/>
  <text x="40" y="112" font-size="11" fill="#666">SOL Transfer (10, 40.0%)</text>
  <rect x="20" y="120" width="15" height="15" fill="#f59e0b" opacity="0.8"/>
  <text x="40" y="132" font-size="11" fill="#666">Token Account Operation (3, 12.0%)</text>
  <rect x="20" y="140" width="15" height="15" fill="#ef4444" opacity="0.8"/>
  <text x="40" y="152" font-size="11" fill="#666">Sent SOL (1, 4.0%)</text>
</svg>