<svg xmlns="http://www.w3.org/2000/svg" width="400" height="400" viewBox="0 0 400 400">
  <!-- Background -->
  <rect width="400" height="400" fill="#f8f9fa"/>
  
  <!-- Title -->
  <text x="200" y="30" text-anchor="middle" font-size="18" font-weight="bold" fill="#333">Transaction Types</text>
  <!-- SOL Transfer: 7 (70.0%) -->
  <path d="M 200 200 L 200 66.66666666666666 A 133.33333333333334 133.33333333333334 0 1 1 73.19246449397953 241.2022659166597 Z" 
        fill="#10b981" opacity="0.8" stroke="#fff" stroke-width="2"/>
  <text x="275.50825280832845" y="254.85995688063082" text-anchor="middle" font-size="12" fill="#fff" font-weight="bold">70%</text>
  <!-- Sent SOL: 2 (20.0%) -->
  <path d="M 200 200 L 73.19246449397953 241.2022659166597 A 133.33333333333334 133.33333333333334 0 0 1 121.62863302767012 92.13106741667376 Z" 
        fill="#3b82f6" opacity="0.8" stroke="#fff" stroke-width="2"/>
  <text x="111.23472514578566" y="171.1584138583383" text-anchor="middle" font-size="12" fill="#fff" font-weight="bold">20%</text>
  <!-- Token Account Operation: 1 (10.0%) -->
  <path d="M 200 200 L 121.62863302767012 92.13106741667376 A 133.33333333333334 133.33333333333334 0 0 1 199.99999999999997 66.66666666666666 Z" 
        fill="#f59e0b" opacity="0.8" stroke="#fff" stroke-width="2"/>
  <text x="171.15841385833824" y="111.23472514578567" text-anchor="middle" font-size="12" fill="#fff" font-weight="bold">10%</text>
  <rect x="20" y="80" width="15" height="15" fill="#10b981" opacity="0.8"/>
  <text x="40" y="92" font-size="11" fill="#666">SOL Transfer (7, 70.0%)</text>
  <rect x="20" y="100" width="15" height="15" fill="#3b82f6" opacity="0.8"/>
  <text x="40" y="112" font-size="11" fill="#666">Sent SOL (2, 20.0%)</text>
  <rect x="20" y="120" width="15" height="15" fill="#f59e0b" opacity="0.8"/>
  <text x="40" y="132" font-size="11" fill="#666">Token Account Operation (1, 10.0%)</text>
</svg>