<svg xmlns="http://www.w3.org/2000/svg" width="800" height="400" viewBox="0 0 800 400">
  <!-- Background -->
  <rect width="800" height="400" fill="#f8f9fa"/>
  
  <!-- Title -->
  <text x="400" y="30" text-anchor="middle" font-size="20" font-weight="bold" fill="#333">Activity - AKJxiz6t</text>
  
  <!-- Y-axis -->
  <line x1="60" y1="60" x2="60" y2="340" stroke="#333" stroke-width="2"/>
  
  <!-- X-axis -->
  <line x1="60" y1="340" x2="740" y2="340" stroke="#333" stroke-width="2"/>
  
  <!-- Y-axis labels -->
  <text x="50" y="65" text-anchor="end" font-size="12" fill="#666">39</text>
  <line x1="60" y1="60" x2="740" y2="60" stroke="#e0e0e0" stroke-width="1" opacity="0.5"/>
  <text x="50" y="121" text-anchor="end" font-size="12" fill="#666">31</text>
  <line x1="60" y1="116" x2="740" y2="116" stroke="#e0e0e0" stroke-width="1" opacity="0.5"/>
  <text x="50" y="177" text-anchor="end" font-size="12" fill="#666">23</text>
  <line x1="60" y1="172" x2="740" y2="172" stroke="#e0e0e0" stroke-width="1" opacity="0.5"/>
  <text x="50" y="233" text-anchor="end" font-size="12" fill="#666">16</text>
  <line x1="60" y1="228" x2="740" y2="228" stroke="#e0e0e0" stroke-width="1" opacity="0.5"/>
  <text x="50" y="289" text-anchor="end" font-size="12" fill="#666">8</text>
  <line x1="60" y1="284" x2="740" y2="284" stroke="#e0e0e0" stroke-width="1" opacity="0.5"/>
  <text x="50" y="345" text-anchor="end" font-size="12" fill="#666">0</text>
  <line x1="60" y1="340" x2="740" y2="340" stroke="#e0e0e0" stroke-width="1" opacity="0.5"/>
  
  <!-- Bars -->
  <!-- Bar 0 -->
  <rect x="80" y="189.23076923076923" width="50" height="150.76923076923077" fill="#10b981" opacity="0.8"/>
  <text x="105" y="360" text-anchor="middle" font-size="10" fill="#666" transform="rotate(-45 105 360)">10-08</text>
  <text x="105" y="184.23076923076923" text-anchor="middle" font-size="10" fill="#333">21</text>
  <!-- Bar 1 -->
  <rect x="306.66666666666663" y="60" width="50" height="280" fill="#10b981" opacity="0.8"/>
  <text x="331.66666666666663" y="360" text-anchor="middle" font-size="10" fill="#666" transform="rotate(-45 331.66666666666663 360)">10-09</text>
  <text x="331.66666666666663" y="55" text-anchor="middle" font-size="10" fill="#333">39</text>
  <!-- Bar 2 -->
  <rect x="533.3333333333333" y="304.1025641025641" width="50" height="35.8974358974359" fill="#10b981" opacity="0.8"/>
  <text x="558.3333333333333" y="360" text-anchor="middle" font-size="10" fill="#666" transform="rotate(-45 558.3333333333333 360)">10-10</text>
  <text x="558.3333333333333" y="299.1025641025641" text-anchor="middle" font-size="10" fill="#333">5</text>
  
  <!-- Legend -->
  <rect x="650" y="60" width="15" height="15" fill="#10b981" opacity="0.8"/>
  <text x="670" y="72" font-size="12" fill="#666">Success</text>
  
  <rect x="650" y="85" width="15" height="15" fill="#ef4444" opacity="0.8"/>
  <text x="670" y="97" font-size="12" fill="#666">Failed</text>
</svg>