<svg xmlns="http://www.w3.org/2000/svg" width="400" height="400" viewBox="0 0 400 400">
  <!-- Background -->
  <rect width="400" height="400" fill="#f8f9fa"/>
  
  <!-- Title -->
  <text x="200" y="30" text-anchor="middle" font-size="18" font-weight="bold" fill="#333">Transaction Types</text>
  <!-- SOL Transfer: 7 (53.8%) -->
  <path d="M 200 200 L 200 66.66666666666666 A 133.33333333333334 133.33333333333334 0 1 1 168.09124476165897 329.4589089901403 Z" 
        fill="#10b981" opacity="0.8" stroke="#fff" stroke-width="2"/>
  <text x="292.6528282491517" y="211.25009015716347" text-anchor="middle" font-size="12" fill="#fff" font-weight="bold">54%</text>
  <!-- Token Account Operation: 4 (30.8%) -->
  <path d="M 200 200 L 168.09124476165897 329.4589089901403 A 133.33333333333334 133.33333333333334 0 0 1 90.26881788084579 124.25803376917925 Z" 
        fill="#3b82f6" opacity="0.8" stroke="#fff" stroke-width="2"/>
  <text x="112.7318173493613" y="233.09645612397" text-anchor="middle" font-size="12" fill="#fff" font-weight="bold">31%</text>
  <!-- Token Transfer: 1 (7.7%) -->
  <path d="M 200 200 L 90.26881788084579 124.25803376917925 A 133.33333333333334 133.33333333333334 0 0 1 138.03691039416412 81.93919657957204 Z" 
        fill="#f59e0b" opacity="0.8" stroke="#fff" stroke-width="2"/>
  <text x="138.10855189752576" y="130.13899683736392" text-anchor="middle" font-size="12" fill="#fff" font-weight="bold">8%</text>
  <!-- Sent SOL: 1 (7.7%) -->
  <path d="M 200 200 L 138.03691039416412 81.93919657957204 A 133.33333333333334 133.33333333333334 0 0 1 199.99999999999997 66.66666666666666 Z" 
        fill="#ef4444" opacity="0.8" stroke="#fff" stroke-width="2"/>
  <text x="177.66387133316135" y="109.3787637069018" text-anchor="middle" font-size="12" fill="#fff" font-weight="bold">8%</text>
  <rect x="20" y="80" width="15" height="15" fill="#10b981" opacity="0.8"/>
  <text x="40" y="92" font-size="11" fill="#666">SOL Transfer (7, 53.8%)</text>
  <rect x="20" y="100" width="15" height="15" fill="#3b82f6" opacity="0.8"/>
  <text x="40" y="112" font-size="11" fill="#666">Token Account Operation (4, 30.8%)</text>
  <rect x="20" y="120" width="15" height="15" fill="#f59e0b" opacity="0.8"/>
  <text x="40" y="132" font-size="11" fill="#666">Token Transfer (1, 7.7%)</text>
  <rect x="20" y="140" width="15" height="15" fill="#ef4444" opacity="0.8"/>
  <text x="40" y="152" font-size="11" fill="#666">Sent SOL (1, 7.7%)</text>
</svg>